<svg version="1.1" xmlns="http://www.w3.org/2000/svg" xmlns:xlink="http://www.w3.org/1999/xlink" width="56.16666" height="64.38" viewBox="0,0,56.16666,64.38"><g transform="translate(-211.91667,-152.75)"><g stroke-miterlimit="10"><path d="M266.83333,180c0,14.3594 -12.01369,26 -26.83333,26c-14.81964,0 -26.83333,-11.6406 -26.83333,-26c0,-14.3594 12.01369,-26 26.83333,-26c14.81964,0 26.83333,11.6406 26.83333,26z" fill="#24d900" stroke="#000000" stroke-width="2.5"/><path d="M219.01667,185.46666c0,-0.69036 0.55964,-1.25 1.25,-1.25c0.69036,0 1.25,0.55964 1.25,1.25c0,0.69036 -0.55964,1.25 -1.25,1.25c-0.69036,0 -1.25,-0.55964 -1.25,-1.25z" fill="#000000" stroke="none" stroke-width="0.5"/><path d="M258.61667,184.8c0,-0.69036 0.55964,-1.25 1.25,-1.25c0.69036,0 1.25,0.55964 1.25,1.25c0,0.69036 -0.55964,1.25 -1.25,1.25c-0.69036,0 -1.25,-0.55964 -1.25,-1.25z" fill="#000000" stroke="none" stroke-width="0.5"/><path d="M257.52,215.53c-1.25,0 -1.25,-1.25 -1.25,-1.25v-0.8c0.00064,-0.44362 0.00128,-0.88725 0.00191,-1.33087c-0.42469,-3.78582 -0.89954,-8.02872 -2.65687,-11.48469c-0.39699,-0.78071 -1.39947,-1.06849 -1.99182,-1.71365c-1.39403,-1.5183 -2.37927,-3.07852 -3.93687,-4.53938c-3.46175,-3.24675 -8.62241,-3.8813 -13.1553,-3.88146c-0.669,0.01172 -3.55193,0.03848 -4.08354,0.15638c-1.4795,0.32812 -2.27164,1.70546 -3.23914,2.67303c-0.85618,0.85625 -1.97811,1.52296 -2.63159,2.58824c-3.92703,6.40171 -2.23007,12.96239 -2.20679,19.93239c0,0 0,1.25 -1.25,1.25c-1.25,0 -1.25,-1.25 -1.25,-1.25c0.02919,-7.44159 -1.73062,-14.45547 2.59321,-21.26761c1.02459,-1.61423 1.64494,-1.6884 2.96841,-3.01176c1.36335,-1.36323 2.32383,-2.82488 4.36086,-3.32697c0.86027,-0.21204 3.63634,-0.22434 4.71646,-0.24362c5.18676,-0.00018 10.87531,0.87059 14.8447,4.51854c1.60286,1.47306 2.65196,3.11831 4.06313,4.66062c0.7472,0.81663 1.86871,1.31983 2.40818,2.28635c2.0292,3.63559 2.49823,8.47477 2.94313,12.51531c0.00064,0.48971 0.00128,0.97942 0.00191,1.46913v0.8c0,0 0,1.25 -1.25,1.25z" fill="#000000" stroke="none" stroke-width="0.5"/><path d="M226.00388,175.79612c0.88388,0.88388 0,1.76777 0,1.76777l-0.7036,0.69267c-1.64163,1.30921 -3.36457,2.41438 -4.97286,3.77768c0,0 -0.95423,0.80743 -1.76166,-0.14681c-0.80743,-0.95423 0.14681,-1.76166 0.14681,-1.76166c1.62984,-1.37676 3.36975,-2.4953 5.02714,-3.82232l0.4964,-0.50733c0,0 0.88388,-0.88388 1.76777,0z" fill="#000000" stroke="none" stroke-width="0.5"/><path d="M263.17,181.48c0,1.25 -1.25,1.25 -1.25,1.25l-0.8924,-0.10107c-2.36123,-1.01681 -3.64717,-1.42366 -5.14766,-3.65556c0,0 -0.69338,-1.04006 0.34669,-1.73344c1.04006,-0.69338 1.73344,0.34669 1.73344,0.34669c1.21665,1.84334 2.05644,1.89275 4.05234,2.74444l-0.0924,-0.10107c0,0 1.25,0 1.25,1.25z" fill="#000000" stroke="none" stroke-width="0.5"/></g></g></svg>