<svg version="1.1" xmlns="http://www.w3.org/2000/svg" xmlns:xlink="http://www.w3.org/1999/xlink" width="56.16667" height="54.5" viewBox="0,0,56.16667,54.5"><g transform="translate(-211.91667,-152.75)"><g stroke-miterlimit="10"><path d="M266.83333,180c0,14.3594 -12.01369,26 -26.83333,26c-14.81964,0 -26.83333,-11.6406 -26.83333,-26c0,-14.3594 12.01369,-26 26.83333,-26c14.81964,0 26.83333,11.6406 26.83333,26z" fill="#24d900" stroke="#000000" stroke-width="2.5"/><path d="M219.61667,181.46666c0,-0.69036 0.55964,-1.25 1.25,-1.25c0.69036,0 1.25,0.55964 1.25,1.25c0,0.69036 -0.55964,1.25 -1.25,1.25c-0.69036,0 -1.25,-0.55964 -1.25,-1.25z" fill="#000000" stroke="none" stroke-width="0.5"/><path d="M258.61667,184.8c0,-0.69036 0.55964,-1.25 1.25,-1.25c0.69036,0 1.25,0.55964 1.25,1.25c0,0.69036 -0.55964,1.25 -1.25,1.25c-0.69036,0 -1.25,-0.55964 -1.25,-1.25z" fill="#000000" stroke="none" stroke-width="0.5"/><path d="M246.16984,189.34601c-1.21268,0.30317 -1.51585,-0.90951 -1.51585,-0.90951l-0.36129,-1.48377c-0.00263,-0.41807 -0.00478,-0.83614 -0.00635,-1.25422c-0.73889,0.33989 -1.45862,0.68347 -2.11067,0.95243c0.27432,0.36093 0.27432,0.81572 0.27432,0.81572l-0.03732,0.69683c0.1822,0.74792 0.58677,2.74226 1.34634,3.18514c1.85801,1.08333 4.4516,-1.29529 5.37767,-2.53913c0.30405,-0.57052 0.85905,-4.3878 -0.27035,-4.47153c-0.61926,-0.04591 -1.33206,0.09676 -2.08339,0.3392c-0.00097,0.65671 -0.00376,1.31341 -0.00897,1.9701l0.30538,1.18289c0,0 0.30317,1.21268 -0.90951,1.51585zM239.95592,187.37279c-4.31841,1.25659 -8.84201,2.339 -13.42258,2.34387c0,0 -1.25,0 -1.25,-1.25c0,-1.25 1.25,-1.25 1.25,-1.25c5.71506,0.00649 11.61335,-1.60383 16.89965,-3.58902c1.39852,-0.52519 4.55184,-2.22441 6.10068,-1.69895c3.1925,1.08307 2.79311,5.98589 1.72965,8.19514c-1.65636,2.19688 -5.51084,5.22533 -8.62233,3.46087c-1.56725,-0.88875 -2.24751,-3.22372 -2.65366,-4.81486l-0.03732,-1.30317c0,0 0,-0.03523 0.00592,-0.09387z" fill="#000000" stroke="none" stroke-width="0.5"/></g></g></svg>